<?xml version="1.0" standalone="no"?>
<!DOCTYPE svg PUBLIC "-//W3C//DTD SVG 20010904//EN"
 "http://www.w3.org/TR/2001/REC-SVG-20010904/DTD/svg10.dtd">
<svg version="1.0" xmlns="http://www.w3.org/2000/svg"
 width="156.000000pt" height="168.000000pt" viewBox="0 0 156.000000 168.000000"
 preserveAspectRatio="xMidYMid meet">
<metadata>
Created by potrace 1.16, written by Peter Selinger 2001-2019
</metadata>
<g transform="translate(0.000000,168.000000) scale(0.100000,-0.100000)"
fill="#000000" stroke="none">
<path d="M736 1466 c-9 -19 -16 -39 -16 -45 0 -6 -4 -11 -10 -11 -5 0 -10 -10
-10 -22 -1 -13 -9 -41 -20 -63 -11 -22 -19 -47 -20 -55 0 -9 -5 -21 -11 -27
-17 -17 -18 -185 -2 -190 7 -3 22 -24 34 -49 13 -24 26 -44 30 -44 4 0 10 -7
13 -16 5 -13 3 -14 -6 -7 -7 6 -42 13 -77 15 -37 3 -67 10 -69 16 -2 7 -9 12
-16 12 -7 0 -23 9 -36 20 -13 11 -27 20 -32 20 -4 0 -8 25 -8 55 0 30 -4 55
-9 55 -5 0 -12 16 -15 35 -4 19 -11 35 -16 35 -6 0 -10 5 -10 12 0 7 -12 23
-27 35 -21 18 -38 23 -84 23 -61 0 -70 -6 -136 -84 -22 -25 -32 -86 -14 -86 5
0 11 -18 15 -41 6 -36 52 -99 74 -99 4 0 15 -8 23 -17 9 -10 26 -25 38 -33 21
-13 46 -33 77 -59 6 -5 21 -12 34 -16 13 -4 31 -14 39 -22 11 -12 28 -14 70
-9 30 4 58 10 61 15 3 5 20 12 38 16 17 3 32 10 32 15 0 5 14 12 32 15 36 8
62 30 53 45 -4 6 5 10 19 10 l25 0 -2 90 c-1 53 2 94 8 98 6 4 16 19 22 33 9
20 20 27 52 32 22 3 48 12 56 21 9 9 21 16 26 16 12 0 49 37 49 50 0 6 5 10
10 10 6 0 10 35 10 85 0 47 -3 85 -8 85 -4 0 -13 14 -20 30 l-14 30 -118 0
-118 0 -16 -34z"/>
<path d="M1120 1173 c-24 -2 -49 -8 -55 -12 -5 -5 -30 -12 -55 -15 -64 -10
-107 -52 -124 -121 -4 -16 -12 -33 -18 -36 -5 -3 -12 -25 -15 -48 -6 -41 -5
-41 26 -41 18 0 38 6 46 13 63 59 118 93 168 102 30 6 32 4 33 -24 1 -19 12
-41 34 -63 32 -31 38 -33 114 -36 71 -3 84 -1 109 18 15 12 27 28 27 36 0 8 4
14 9 14 12 0 25 121 16 149 -11 35 -89 63 -185 66 -47 2 -105 1 -130 -2z"/>
<path d="M873 833 c-16 -3 -23 -12 -23 -28 0 -20 6 -24 50 -30 28 -4 50 -10
50 -15 0 -4 14 -10 30 -14 32 -6 43 -14 88 -58 48 -47 53 -56 37 -62 -9 -3
-15 -18 -15 -36 0 -16 -4 -30 -10 -30 -5 0 -10 -13 -10 -29 0 -17 5 -33 10
-36 6 -3 10 -16 10 -28 0 -13 10 -31 23 -42 19 -17 37 -20 134 -20 61 0 115 3
119 8 4 4 10 44 14 89 3 51 10 83 18 86 17 5 15 34 -5 61 -29 38 -86 91 -105
97 -10 3 -18 9 -18 14 0 4 -11 11 -25 14 -14 4 -25 11 -25 16 0 6 -8 10 -17
10 -10 0 -31 8 -48 17 -22 12 -60 17 -145 19 -63 1 -125 0 -137 -3z"/>
<path d="M695 794 c-53 -65 -75 -84 -100 -84 -13 0 -25 -4 -27 -8 -1 -5 -18
-12 -36 -15 -18 -4 -31 -3 -28 2 7 10 -17 21 -45 21 -12 0 -16 5 -13 14 3 9
-3 17 -18 21 -13 4 -26 13 -30 19 -4 7 -40 11 -90 11 -85 0 -112 -10 -159 -56
-17 -17 -26 -118 -11 -128 4 -4 15 -22 25 -41 26 -53 75 -75 162 -75 40 0 78
5 86 11 8 7 47 15 87 19 39 4 72 11 72 15 0 4 20 11 45 14 25 4 45 11 45 16 0
5 10 12 23 15 24 7 57 52 57 79 0 9 5 16 10 16 6 0 10 11 10 25 0 38 21 26 48
-28 18 -38 22 -57 17 -88 -4 -21 -11 -39 -17 -39 -6 0 -8 -6 -5 -13 3 -7 -2
-23 -12 -35 -14 -20 -20 -21 -56 -11 -96 27 -208 -13 -220 -79 -7 -39 4 -142
15 -142 4 0 10 -10 14 -23 10 -39 58 -57 152 -57 49 0 84 4 84 10 0 6 11 10
24 10 27 0 56 24 56 46 0 8 3 14 8 14 7 0 13 10 42 66 8 16 17 31 21 34 3 3 9
22 13 43 4 20 11 37 16 37 5 0 12 23 16 50 4 28 10 50 15 50 14 0 11 60 -3 74
-7 7 -26 30 -43 52 -54 69 -108 114 -135 114 -22 0 -26 4 -25 28 0 23 -5 27
-30 30 -24 2 -36 -4 -60 -34z"/>
</g>
</svg>
